<?xml version="1.0" encoding="UTF-8"?>
<!DOCTYPE svg PUBLIC "-//W3C//DTD SVG 1.1//EN" "http://www.w3.org/Graphics/SVG/1.1/DTD/svg11.dtd">
<svg xmlns="http://www.w3.org/2000/svg" version="1.1" width="48px" height="48px" style="shape-rendering:geometricPrecision; text-rendering:geometricPrecision; image-rendering:optimizeQuality; fill-rule:evenodd; clip-rule:evenodd" xmlns:xlink="http://www.w3.org/1999/xlink">
<g><path style="opacity:0.891" fill="#061060" d="M 34.5,-0.5 C 35.8333,-0.5 37.1667,-0.5 38.5,-0.5C 39.4826,14.0884 39.816,28.755 39.5,43.5C 38.8061,40.5787 37.9728,37.5787 37,34.5C 36.6667,38.5 36.3333,42.5 36,46.5C 34.1822,36.9048 32.8489,27.2381 32,17.5C 30.0012,21.9598 27.5012,25.9598 24.5,29.5C 24.33,28.1779 24.6634,27.0113 25.5,26C 23.8067,25.516 22.4733,26.016 21.5,27.5C 21.2753,23.2464 19.6086,19.5797 16.5,16.5C 14.0754,26.7144 12.4087,37.0477 11.5,47.5C 11.1667,47.5 10.8333,47.5 10.5,47.5C 9.85786,43.1565 9.52453,38.8231 9.5,34.5C 10.3764,34.6309 11.0431,34.2975 11.5,33.5C 9.68116,32.6801 8.0145,31.6801 6.5,30.5C 7.20327,21.0824 8.70327,11.749 11,2.5C 13.2185,0.381299 15.7185,0.0479656 18.5,1.5C 20.5021,5.84322 22.5021,10.1766 24.5,14.5C 27.1127,8.91807 30.446,3.91807 34.5,-0.5 Z"/></g>
<g><path style="opacity:0.063" fill="#000f60" d="M 21.5,27.5 C 20.8333,28.1667 20.8333,28.1667 21.5,27.5 Z"/></g>
<g><path style="opacity:0.063" fill="#000f60" d="M 24.5,29.5 C 23.8333,30.1667 23.8333,30.1667 24.5,29.5 Z"/></g>
<g><path style="opacity:0.275" fill="#071060" d="M 6.5,30.5 C 8.0145,31.6801 9.68116,32.6801 11.5,33.5C 11.0431,34.2975 10.3764,34.6309 9.5,34.5C 8.61559,37.0232 7.78226,39.6898 7,42.5C 6.50115,38.5138 6.33449,34.5138 6.5,30.5 Z"/></g>
<g><path style="opacity:0.188" fill="#080f60" d="M 8.5,43.5 C 9.52502,43.8966 9.69169,44.5632 9,45.5C 8.53566,44.9056 8.36899,44.2389 8.5,43.5 Z"/></g>
<g><path style="opacity:0.125" fill="#080f60" d="M 39.5,43.5 C 40.8333,44.1667 40.8333,44.1667 39.5,43.5 Z"/></g>
</svg>
